<?xml version="1.0" encoding="utf-8"?>
<!-- Generator: Adobe Illustrator 25.4.1, SVG Export Plug-In . SVG Version: 6.00 Build 0)  -->
<svg version="1.1" id="Capa_1" xmlns="http://www.w3.org/2000/svg" xmlns:xlink="http://www.w3.org/1999/xlink" x="0px" y="0px"
	 viewBox="0 0 16 16" style="enable-background:new 0 0 16 16;" xml:space="preserve">
<style type="text/css">
	.st0{fill:#20C997;}
</style>
<path class="st0" d="M13.9,3.6c0.2,0.2,0.2,0.5,0,0.7c0,0,0,0,0,0l-7,7c-0.2,0.2-0.5,0.2-0.7,0c0,0,0,0,0,0L2.6,7.9
	c-0.2-0.2-0.2-0.5,0-0.7C2.8,7,3.2,7,3.4,7.1l3.1,3.1l6.6-6.6C13.3,3.5,13.7,3.5,13.9,3.6C13.9,3.6,13.9,3.6,13.9,3.6z"/>
</svg>
