<svg xmlns="http://www.w3.org/2000/svg" viewBox="0 0 440 156.83"><defs><style>.cls-1{fill:none;}.cls-2{fill:#251c6a;}.cls-3{fill:#c7893e;}</style></defs><g id="Capa_2" data-name="Capa 2"><g id="Capa_1-2" data-name="Capa 1"><rect class="cls-1" width="440" height="156.83"/><polygon class="cls-2" points="150.64 56.68 131.9 89.15 113.09 56.68 110.51 56.68 110.51 98.68 113.51 98.68 113.51 62.85 131.09 93.1 132.59 93.1 150.16 62.75 150.22 98.68 153.22 98.68 153.16 56.68 150.64 56.68"/><path class="cls-2" d="M186.12,69.1a14.88,14.88,0,0,0-7.65-2,14.7,14.7,0,0,0-7.68,2,14.54,14.54,0,0,0-5.36,5.61,16.94,16.94,0,0,0-2,8.25,16.19,16.19,0,0,0,2.07,8.22,14.82,14.82,0,0,0,5.69,5.64,16.79,16.79,0,0,0,8.37,2,17.19,17.19,0,0,0,6.69-1.29,12.85,12.85,0,0,0,5.13-3.81l-1.74-2a11,11,0,0,1-4.41,3.3,14.53,14.53,0,0,1-5.61,1.08,14,14,0,0,1-6.84-1.65,11.93,11.93,0,0,1-4.7-4.62,13.15,13.15,0,0,1-1.68-6.21h26.9a3.19,3.19,0,0,1,0-.45,2.77,2.77,0,0,0,0-.39,16.94,16.94,0,0,0-1.95-8.25A14.13,14.13,0,0,0,186.12,69.1ZM168,76a11.54,11.54,0,0,1,4.28-4.56,12.57,12.57,0,0,1,12.45,0A11.93,11.93,0,0,1,189,76a12.66,12.66,0,0,1,1.48,5.43h-24A13.33,13.33,0,0,1,168,76Z"/><polygon class="cls-2" points="224.42 67.36 221.06 67.36 211.01 80.41 200.91 67.36 197.49 67.36 209.26 82.52 196.83 98.68 200.25 98.68 211 84.72 221.72 98.68 225.26 98.68 212.66 82.53 224.42 67.36"/><path class="cls-2" d="M242.89,67.12A20.39,20.39,0,0,0,236,68.29a16.67,16.67,0,0,0-5.64,3.27l1.5,2.16a16.25,16.25,0,0,1,4.77-2.85,16.07,16.07,0,0,1,6-1.11q4.56,0,6.93,2.28T252,78.7v2.52H241.21a16.13,16.13,0,0,0-6.89,1.23,8,8,0,0,0-3.69,3.18A8.64,8.64,0,0,0,229.52,90a8.29,8.29,0,0,0,1.35,4.68,8.68,8.68,0,0,0,3.9,3.15,14.94,14.94,0,0,0,6,1.11,13.68,13.68,0,0,0,7.71-2,10.77,10.77,0,0,0,3.57-3.85v5.62H255V78.82q0-5.82-3.12-8.76T242.89,67.12Zm5,27.54a11.89,11.89,0,0,1-6.69,1.8,10.1,10.1,0,0,1-6.41-1.8,5.81,5.81,0,0,1-2.28-4.8,5.87,5.87,0,0,1,1.95-4.5q1.93-1.8,6.8-1.8H252v5.88A10.61,10.61,0,0,1,247.9,94.66Z"/><path class="cls-2" d="M298,77.23c-.38-.16-.78-.29-1.19-.42a10.5,10.5,0,0,0,4-3.48,10.09,10.09,0,0,0,1.62-5.73,9.44,9.44,0,0,0-4-7.92q-4-3-11.91-3H265.93v42h21.71q8.28,0,12.54-3a9.77,9.77,0,0,0,4.26-8.43A10.75,10.75,0,0,0,302.73,81,10.55,10.55,0,0,0,298,77.23ZM285.24,64a10,10,0,0,1,5.43,1.23,4.11,4.11,0,0,1,1.89,3.69,4.17,4.17,0,0,1-1.89,3.75,10,10,0,0,1-5.43,1.23h-9.66V64Zm7.41,26.13a10.84,10.84,0,0,1-5.73,1.23H275.58V81h11.34a10.43,10.43,0,0,1,5.73,1.29,4.39,4.39,0,0,1,2,3.93A4.3,4.3,0,0,1,292.65,90.13Z"/><path class="cls-2" d="M335.63,69.4q-4.08-3.48-11.46-3.48a28.46,28.46,0,0,0-7.56,1,20.24,20.24,0,0,0-6.36,2.88l3.36,6.54a13.41,13.41,0,0,1,4.23-2.19,16.29,16.29,0,0,1,5.07-.81q3.78,0,5.61,1.68a6,6,0,0,1,1.83,4.68h-7.44a21.71,21.71,0,0,0-8,1.23,9.23,9.23,0,0,0-4.47,3.39,9.52,9.52,0,0,0,0,10,9.84,9.84,0,0,0,4.14,3.51,14.92,14.92,0,0,0,6.48,1.29,13.38,13.38,0,0,0,7-1.62A8.14,8.14,0,0,0,331,94.62v4.06h8.76V80.26Q339.71,72.88,335.63,69.4Zm-8,22.35a8,8,0,0,1-4.2,1.11,6.35,6.35,0,0,1-3.87-1A3.37,3.37,0,0,1,318.17,89a3.44,3.44,0,0,1,1.23-2.7q1.23-1.08,4.53-1.08h6.42v3.3A6.36,6.36,0,0,1,327.65,91.75Z"/><path class="cls-2" d="M374.64,67.45a15,15,0,0,0-6.86-1.53,15.35,15.35,0,0,0-7.38,1.74,12.13,12.13,0,0,0-3.3,2.62V66.4h-8.94V98.68h9.36v-16a10.71,10.71,0,0,1,1-4.92A6.45,6.45,0,0,1,361.27,75a8.45,8.45,0,0,1,4-.93,6.23,6.23,0,0,1,4.83,1.86q1.71,1.86,1.71,5.76v17h9.35V80.2a16.58,16.58,0,0,0-1.74-8.07A11.09,11.09,0,0,0,374.64,67.45Z"/><polygon class="cls-2" points="413.66 98.68 425 98.68 410.36 80.07 423.8 66.4 412.64 66.4 398.97 79.37 398.97 54.16 389.61 54.16 389.61 98.68 398.97 98.68 398.97 90.49 403.49 86.04 413.66 98.68"/><path class="cls-3" d="M112.59,108.59a32.5,32.5,0,0,0,6.2-.6,51.56,51.56,0,0,1-35.21,13.82c-.49,0-1,0-1.44,0a81.39,81.39,0,0,1-6-10.87,84.51,84.51,0,0,1-4.5-57.82,83.68,83.68,0,0,0-14.88,47.77,85.55,85.55,0,0,0,.54,9.52c.17,1.56.39,3.12.66,4.66a83.57,83.57,0,0,0,13.86,33.86A84.14,84.14,0,0,1,15,73.54q1-2.28,2.2-4.48A84.22,84.22,0,0,1,65.12,28.37a12.85,12.85,0,0,0,21.2-.66c-.82-.1-1.63-.2-2.46-.28Q79.74,27,75.5,27c-2.36,0-4.7.1-7,.29h0c-1.28.11-2.55.24-3.8.4a83.59,83.59,0,0,0-15.4,3.48h0A83.68,83.68,0,0,0,17.17,50.55a51.8,51.8,0,0,1,51-42.64c1.66,0,3.3.09,4.92.24h0A50.89,50.89,0,0,1,82.3,9.87,51.54,51.54,0,0,1,94.48,15.1a52.14,52.14,0,0,1,9.62,7.33c1,.43,2,.89,3,1.39a52.7,52.7,0,0,1,4.62,2.66,52.14,52.14,0,0,1,18.38,20.65h0c.44.91.87,1.83,1.26,2.77a32.33,32.33,0,1,0-18.73,58.69Z"/></g></g></svg>