<svg id="Capa_1" data-name="Capa 1" xmlns="http://www.w3.org/2000/svg" viewBox="0 0 440 156.83"><defs><style>.cls-1{fill:none;}.cls-2{fill:#fff;}.cls-3{fill:#c7893e;}</style></defs><g id="Capa_2" data-name="Capa 2"><g id="Capa_1-2" data-name="Capa 1-2"><rect class="cls-1" width="440" height="156.83"/><polygon class="cls-2" points="150.64 56.68 131.9 89.15 113.09 56.68 110.51 56.68 110.51 98.68 113.51 98.68 113.51 62.85 131.09 93.1 132.59 93.1 150.16 62.75 150.22 98.68 153.22 98.68 153.16 56.68 150.64 56.68"/><path class="cls-2" d="M186.12,69.1a14.88,14.88,0,0,0-7.65-2,14.36,14.36,0,0,0-13,7.61,16.94,16.94,0,0,0-2,8.25,16.18,16.18,0,0,0,2.07,8.22,14.75,14.75,0,0,0,5.69,5.64,16.83,16.83,0,0,0,8.37,2,17.25,17.25,0,0,0,6.69-1.29,12.9,12.9,0,0,0,5.13-3.81l-1.74-2a11,11,0,0,1-4.41,3.3,14.59,14.59,0,0,1-5.61,1.08,14.05,14.05,0,0,1-6.84-1.65,11.93,11.93,0,0,1-4.7-4.62,13.12,13.12,0,0,1-1.68-6.21h26.9a3.38,3.38,0,0,1,0-.45,2.54,2.54,0,0,0,0-.39,16.92,16.92,0,0,0-2-8.25A14.14,14.14,0,0,0,186.12,69.1ZM168,76a11.59,11.59,0,0,1,4.28-4.56,12.57,12.57,0,0,1,12.45,0A11.92,11.92,0,0,1,189,76a12.74,12.74,0,0,1,1.48,5.43h-24A13.23,13.23,0,0,1,168,76Z"/><polygon class="cls-2" points="224.42 67.36 221.06 67.36 211.01 80.41 200.91 67.36 197.49 67.36 209.26 82.52 196.83 98.68 200.25 98.68 211 84.72 221.72 98.68 225.26 98.68 212.66 82.53 224.42 67.36"/><path class="cls-2" d="M242.89,67.12A20.44,20.44,0,0,0,236,68.29a16.71,16.71,0,0,0-5.64,3.27l1.5,2.16a16.17,16.17,0,0,1,4.77-2.85,16,16,0,0,1,6-1.11q4.56,0,6.93,2.28T252,78.7v2.52H241.21a16.11,16.11,0,0,0-6.89,1.23,8,8,0,0,0-3.69,3.18A8.67,8.67,0,0,0,229.52,90a8.27,8.27,0,0,0,1.35,4.68,8.66,8.66,0,0,0,3.9,3.15,14.84,14.84,0,0,0,6,1.11,13.67,13.67,0,0,0,7.71-2,10.72,10.72,0,0,0,3.57-3.85v5.62H255V78.82q0-5.82-3.12-8.76T242.89,67.12Zm5,27.54a11.87,11.87,0,0,1-6.69,1.8,10.09,10.09,0,0,1-6.41-1.8,6.18,6.18,0,0,1-.33-9.3c1.29-1.2,3.55-1.8,6.8-1.8H252v5.88a10.62,10.62,0,0,1-4.1,5.22Z"/><path class="cls-2" d="M298,77.23c-.38-.16-.78-.29-1.19-.42a10.5,10.5,0,0,0,4-3.48,10.1,10.1,0,0,0,1.62-5.73,9.43,9.43,0,0,0-4-7.92q-4-3-11.91-3H265.93v42h21.71q8.28,0,12.54-3a9.78,9.78,0,0,0,4.26-8.43A10.72,10.72,0,0,0,302.73,81,10.55,10.55,0,0,0,298,77.23ZM285.24,64a10,10,0,0,1,5.43,1.23,4.12,4.12,0,0,1,1.89,3.69,4.17,4.17,0,0,1-1.89,3.75,10,10,0,0,1-5.43,1.23h-9.66V64Zm7.41,26.13a10.85,10.85,0,0,1-5.73,1.23H275.58V81h11.34a10.42,10.42,0,0,1,5.73,1.29,4.4,4.4,0,0,1,2,3.93A4.31,4.31,0,0,1,292.65,90.13Z"/><path class="cls-2" d="M335.63,69.4q-4.08-3.48-11.46-3.48a28.39,28.39,0,0,0-7.56,1,20.21,20.21,0,0,0-6.36,2.88l3.36,6.54a13.32,13.32,0,0,1,4.23-2.19,16.2,16.2,0,0,1,5.07-.81q3.78,0,5.61,1.68a6,6,0,0,1,1.83,4.68h-7.44a21.58,21.58,0,0,0-8,1.23,9.19,9.19,0,0,0-4.47,3.39,9.53,9.53,0,0,0,0,10,9.87,9.87,0,0,0,4.14,3.51,14.91,14.91,0,0,0,6.48,1.29,13.34,13.34,0,0,0,7-1.62A8.12,8.12,0,0,0,331,94.62v4.06h8.76V80.26Q339.72,72.88,335.63,69.4Zm-8,22.35a8,8,0,0,1-4.2,1.11,6.38,6.38,0,0,1-3.87-1A3.38,3.38,0,0,1,318.17,89a3.43,3.43,0,0,1,1.23-2.7q1.23-1.08,4.53-1.08h6.42v3.3a6.39,6.39,0,0,1-2.7,3.23Z"/><path class="cls-2" d="M374.64,67.45a14.93,14.93,0,0,0-6.86-1.53,15.29,15.29,0,0,0-7.38,1.74,12.12,12.12,0,0,0-3.3,2.62V66.4h-8.94V98.68h9.36v-16a10.7,10.7,0,0,1,1-4.92A6.43,6.43,0,0,1,361.27,75a8.55,8.55,0,0,1,4-.93,6.23,6.23,0,0,1,4.83,1.86q1.71,1.86,1.71,5.76v17h9.35V80.2a16.6,16.6,0,0,0-1.74-8.07A11.08,11.08,0,0,0,374.64,67.45Z"/><polygon class="cls-2" points="413.66 98.68 425 98.68 410.36 80.07 423.8 66.4 412.64 66.4 398.97 79.37 398.97 54.16 389.61 54.16 389.61 98.68 398.97 98.68 398.97 90.49 403.49 86.04 413.66 98.68"/><path class="cls-3" d="M112.59,108.59a32.25,32.25,0,0,0,6.2-.6,51.57,51.57,0,0,1-35.21,13.82H82.14a82.14,82.14,0,0,1-6-10.87,84.51,84.51,0,0,1-4.5-57.82A84.13,84.13,0,0,0,57.3,110.41c.17,1.56.39,3.12.66,4.66a83.58,83.58,0,0,0,13.86,33.86A84.14,84.14,0,0,1,15,73.54q1-2.28,2.2-4.48A84.2,84.2,0,0,1,65.12,28.37a12.85,12.85,0,0,0,18,2.79,13,13,0,0,0,3.24-3.45c-.82-.1-1.63-.2-2.46-.28A79.58,79.58,0,0,0,75.5,27c-2.36,0-4.7.1-7,.29h0c-1.28.11-2.55.24-3.8.4a83.72,83.72,0,0,0-15.4,3.48h0A83.57,83.57,0,0,0,17.17,50.55a51.8,51.8,0,0,1,51-42.64c1.66,0,3.3.09,4.92.24h0A50.51,50.51,0,0,1,82.3,9.87a51.75,51.75,0,0,1,21.8,12.56c1,.43,2,.89,3,1.39,1.58.81,3.13,1.7,4.62,2.66A52.17,52.17,0,0,1,130.1,47.13h0c.44.91.87,1.83,1.26,2.77a32.33,32.33,0,1,0-18.73,58.69Z"/></g></g></svg>